<svg width="17" height="20" viewBox="0 0 17 20" fill="none" xmlns="http://www.w3.org/2000/svg">
<path fill-rule="evenodd" clip-rule="evenodd" d="M11.871 0C12.0437 1.16923 11.5662 2.31469 10.9362 3.12512C10.2621 3.9944 9.10038 4.66674 7.97475 4.63165C7.76926 3.51222 8.29539 2.35883 8.93554 1.5835C9.6378 0.727798 10.8413 0.0713083 11.871 0ZM15.2524 16.4575C15.8327 15.5713 16.0495 15.1242 16.5 14.1236C13.2236 12.8819 12.6986 8.24008 15.9411 6.4585C14.9521 5.22249 13.5623 4.50601 12.2504 4.50601C11.3051 4.50601 10.6574 4.75184 10.0686 4.97532C9.57789 5.16156 9.1281 5.33228 8.58103 5.33228C7.98985 5.33228 7.46633 5.14522 6.91816 4.94936C6.3158 4.73413 5.68367 4.50827 4.89929 4.50827C3.42704 4.50827 1.85996 5.40472 0.866416 6.93728C-0.530185 9.09578 -0.291961 13.1536 1.97286 16.6103C2.78237 17.8475 3.86397 19.2374 5.27864 19.2499C5.86563 19.2557 6.25624 19.0811 6.67894 18.8922C7.16276 18.6759 7.68861 18.4409 8.5991 18.436C9.51495 18.4306 10.0325 18.6685 10.5099 18.8879C10.9217 19.0772 11.3037 19.2528 11.8857 19.2465C13.3015 19.2351 14.4429 17.6947 15.2524 16.4575Z" fill="#222222"/>
</svg>
