<svg width="10" height="10" viewBox="0 0 10 10" fill="none" xmlns="http://www.w3.org/2000/svg">
<path d="M8.33333 4.58333C8.22283 4.58333 8.11685 4.62723 8.0387 4.70537C7.96057 4.78351 7.91667 4.88949 7.91667 5V7.5C7.91667 7.61051 7.87277 7.71649 7.79463 7.79463C7.71649 7.87277 7.61051 7.91667 7.5 7.91667H2.5C2.38949 7.91667 2.28351 7.87277 2.20537 7.79463C2.12723 7.71649 2.08333 7.61051 2.08333 7.5V2.5C2.08333 2.38949 2.12723 2.28351 2.20537 2.20537C2.28351 2.12723 2.38949 2.08333 2.5 2.08333H5C5.11051 2.08333 5.21649 2.03943 5.29463 1.96129C5.37277 1.88315 5.41667 1.77717 5.41667 1.66667C5.41667 1.55616 5.37277 1.45018 5.29463 1.37204C5.21649 1.2939 5.11051 1.25 5 1.25H2.5C2.16848 1.25 1.85054 1.3817 1.61612 1.61612C1.3817 1.85054 1.25 2.16848 1.25 2.5V7.5C1.25 7.83152 1.3817 8.14946 1.61612 8.38388C1.85054 8.6183 2.16848 8.75 2.5 8.75H7.5C7.83152 8.75 8.14946 8.6183 8.38388 8.38388C8.6183 8.14946 8.75 7.83152 8.75 7.5V5C8.75 4.88949 8.7061 4.78351 8.62796 4.70537C8.54982 4.62723 8.44384 4.58333 8.33333 4.58333Z" fill="white"/>
<path d="M6.6668 2.08333H7.32514L4.7043 4.7C4.66525 4.73873 4.63425 4.78482 4.6131 4.83559C4.59195 4.88637 4.58105 4.94083 4.58105 4.99583C4.58105 5.05084 4.59195 5.1053 4.6131 5.15607C4.63425 5.20685 4.66525 5.25293 4.7043 5.29167C4.74304 5.33072 4.78912 5.36172 4.8399 5.38287C4.89067 5.40403 4.94513 5.41492 5.00014 5.41492C5.05514 5.41492 5.1096 5.40403 5.16038 5.38287C5.21115 5.36172 5.25724 5.33072 5.29597 5.29167L7.9168 2.675V3.33333C7.9168 3.44384 7.9607 3.54982 8.03884 3.62796C8.11698 3.7061 8.22296 3.75 8.33347 3.75C8.44398 3.75 8.54996 3.7061 8.6281 3.62796C8.70624 3.54982 8.75014 3.44384 8.75014 3.33333V1.66667C8.75014 1.55616 8.70624 1.45018 8.6281 1.37204C8.54996 1.2939 8.44398 1.25 8.33347 1.25H6.6668C6.5563 1.25 6.45032 1.2939 6.37218 1.37204C6.29404 1.45018 6.25014 1.55616 6.25014 1.66667C6.25014 1.77717 6.29404 1.88315 6.37218 1.96129C6.45032 2.03943 6.5563 2.08333 6.6668 2.08333Z" fill="white"/>
</svg>
