<svg width="31" height="30" viewBox="0 0 31 30" fill="none" xmlns="http://www.w3.org/2000/svg">
<path d="M11.3496 28.1016C11.779 27.918 12.0798 27.4938 12.0798 27V23.76C12.0798 23.6418 12.0895 23.5188 12.1046 23.394C12.0961 23.3964 12.0883 23.3982 12.0798 23.4C12.0798 23.4 10.2679 23.4 9.90555 23.4C8.99961 23.4 8.21447 23.04 7.85209 22.32C7.42932 21.54 7.24813 20.22 6.16101 19.5C5.97982 19.38 6.10061 19.2 6.46299 19.2C6.82536 19.26 7.61051 19.74 8.09367 20.4C8.63724 21.06 9.1808 21.6 10.1471 21.6C11.6492 21.6 12.4543 21.525 12.9386 21.267C13.5027 20.4336 14.2837 19.8 15.0996 19.8V19.785C11.6764 19.6758 9.48942 18.5454 8.47115 16.8C6.25764 16.8252 4.33041 17.043 3.2306 17.2242C3.19557 17.028 3.16537 16.8306 3.1394 16.632C4.22471 16.4544 6.06437 16.2438 8.17944 16.2036C8.11179 16.038 8.05321 15.8682 8.00368 15.6942C5.88318 15.5874 4.05319 15.6708 3.05907 15.7524C3.04699 15.5532 3.03069 15.3546 3.02827 15.153C4.0242 15.072 5.80467 14.991 7.87081 15.0864C7.8231 14.7864 7.7923 14.4798 7.7923 14.1606C7.7923 13.1406 8.15467 12.0606 8.81903 11.1606C8.51705 10.1406 8.09428 7.98055 8.93982 7.20055C10.5705 7.20055 11.718 7.98055 12.2616 8.46055C13.2877 8.03995 14.4352 7.79995 15.7036 7.79995C16.9719 7.79995 18.1194 8.03995 19.0857 8.45995C19.6293 7.97995 20.7768 7.19995 22.4075 7.19995C23.3134 8.03995 22.8303 10.2 22.5283 11.16C23.1927 12.06 23.555 13.08 23.4946 14.16C23.4946 14.4504 23.4675 14.7306 23.4282 15.0054C25.5414 14.9022 27.3702 14.985 28.3831 15.0666C28.3819 15.2688 28.3631 15.4662 28.3523 15.666C27.3431 15.5832 25.4684 15.498 23.3038 15.6126C23.25 15.8142 23.1848 16.0104 23.1075 16.2006C25.2491 16.2282 27.1329 16.434 28.2701 16.614C28.2442 16.8132 28.214 17.0106 28.1789 17.2062C27.0242 17.0226 25.0559 16.8078 22.8164 16.797C21.8108 18.5238 19.6637 19.65 16.3075 19.7814V19.8C17.8778 19.8 19.3273 22.14 19.3273 23.76V27C19.3273 27.4938 19.6281 27.918 20.0575 28.1016C25.5904 26.2824 29.5946 21.0984 29.5946 15C29.5946 7.39075 23.3636 1.19995 15.7036 1.19995C8.04355 1.19995 1.8125 7.39075 1.8125 15C1.8125 21.0984 5.81675 26.2824 11.3496 28.1016Z" fill="#AAAAAA"/>
</svg>
