<svg width="31" height="30" viewBox="0 0 31 30" fill="none" xmlns="http://www.w3.org/2000/svg">
<path d="M25.5652 2.3999H6.23855C4.57162 2.3999 3.21875 3.7439 3.21875 5.3999V24.5999C3.21875 26.2559 4.57162 27.5999 6.23855 27.5999H25.5652C27.2322 27.5999 28.585 26.2559 28.585 24.5999V5.3999C28.585 3.7439 27.2322 2.3999 25.5652 2.3999ZM11.0702 11.9999V23.3999H7.44646V11.9999H11.0702ZM7.44646 8.6819C7.44646 7.8419 8.17121 7.1999 9.25834 7.1999C10.3455 7.1999 11.0279 7.8419 11.0702 8.6819C11.0702 9.5219 10.3938 10.1999 9.25834 10.1999C8.17121 10.1999 7.44646 9.5219 7.44646 8.6819ZM24.3573 23.3999H20.7336C20.7336 23.3999 20.7336 17.8439 20.7336 17.3999C20.7336 16.1999 20.1296 14.9999 18.6197 14.9759H18.5714C17.1098 14.9759 16.5058 16.2119 16.5058 17.3999C16.5058 17.9459 16.5058 23.3999 16.5058 23.3999H12.8821V11.9999H16.5058V13.5359C16.5058 13.5359 17.6715 11.9999 20.0149 11.9999C22.4126 11.9999 24.3573 13.6379 24.3573 16.9559V23.3999Z" fill="#AAAAAA"/>
</svg>
